<?xml version="1.0" encoding="UTF-8"?>
<svg xmlns="http://www.w3.org/2000/svg" viewBox="0 0 2200 1400" font-family="Arial, sans-serif">
  <defs>
    <linearGradient id="greenGradient" x1="0%" y1="0%" x2="0%" y2="100%">
      <stop offset="0%" style="stop-color:#2E8B2E;stop-opacity:1" />
      <stop offset="100%" style="stop-color:#1B660F;stop-opacity:1" />
    </linearGradient>
    <linearGradient id="blueGradient" x1="0%" y1="0%" x2="0%" y2="100%">
      <stop offset="0%" style="stop-color:#1E90FF;stop-opacity:1" />
      <stop offset="100%" style="stop-color:#147EBA;stop-opacity:1" />
    </linearGradient>
    <linearGradient id="purpleGradient" x1="0%" y1="0%" x2="0%" y2="100%">
      <stop offset="0%" style="stop-color:#9966CC;stop-opacity:1" />
      <stop offset="100%" style="stop-color:#8C4FFF;stop-opacity:1" />
    </linearGradient>
    <linearGradient id="orangeGradient" x1="0%" y1="0%" x2="0%" y2="100%">
      <stop offset="0%" style="stop-color:#FF8C00;stop-opacity:1" />
      <stop offset="100%" style="stop-color:#ED7100;stop-opacity:1" />
    </linearGradient>
    <linearGradient id="redGradient" x1="0%" y1="0%" x2="0%" y2="100%">
      <stop offset="0%" style="stop-color:#FF4444;stop-opacity:1" />
      <stop offset="100%" style="stop-color:#EE3124;stop-opacity:1" />
    </linearGradient>
  </defs>

  <!-- Background -->
  <rect width="2200" height="1400" fill="#1a1a2e"/>

  <!-- Title -->
  <text x="1100" y="55" text-anchor="middle" fill="white" font-size="32" font-weight="bold">acme-test Infrastructure - us-east-1 (AZ: us-east-1a, us-east-1b)</text>
  <text x="1100" y="90" text-anchor="middle" fill="#888" font-size="18">Generated: 2026-04-28 10:30:00 | Template: existing_vpc_resources</text>

  <!-- Management VPC IGW -->
  <rect x="280" y="115" width="120" height="48" rx="5" fill="#232F3E" stroke="#FF9900" stroke-width="2"/>
  <text x="340" y="146" text-anchor="middle" fill="#FF9900" font-size="18" font-weight="bold">IGW</text>
  <line x1="340" y1="163" x2="340" y2="190" stroke="#FF9900" stroke-width="2" stroke-dasharray="4,2"/>

  <!-- Inspection VPC IGW -->
  <rect x="1680" y="115" width="120" height="48" rx="5" fill="#232F3E" stroke="#FF9900" stroke-width="2"/>
  <text x="1740" y="146" text-anchor="middle" fill="#FF9900" font-size="18" font-weight="bold">IGW</text>
  <line x1="1740" y1="163" x2="1740" y2="190" stroke="#FF9900" stroke-width="2" stroke-dasharray="4,2"/>

  <!-- ==================== MANAGEMENT VPC ==================== -->
  <rect x="60" y="190" width="600" height="450" rx="10" fill="none" stroke="#3B48CC" stroke-width="3"/>
  <text x="85" y="230" fill="white" font-size="24" font-weight="bold">Management VPC</text>
  <text x="85" y="260" fill="#888" font-size="17">vpc-0a1b2c3d4e5f | 10.0.0.0/24</text>

  <!-- Management Public Subnets -->
  <rect x="90" y="290" width="250" height="145" rx="5" fill="url(#greenGradient)" opacity="0.8"/>
  <text x="215" y="325" text-anchor="middle" fill="white" font-size="18" font-weight="bold">Public AZ1</text>
  <text x="215" y="352" text-anchor="middle" fill="white" font-size="16">10.0.0.0/27</text>
  <!-- Jump Box -->
  <rect x="115" y="368" width="200" height="62" rx="3" fill="#232F3E" stroke="#FF9900" stroke-width="1"/>
  <text x="215" y="392" text-anchor="middle" fill="#FF9900" font-size="16">Jump Box</text>
  <text x="215" y="412" text-anchor="middle" fill="white" font-size="15">10.0.0.10</text>
  <text x="215" y="428" text-anchor="middle" fill="#00FF00" font-size="14">54.123.45.67</text>

  <rect x="370" y="290" width="250" height="145" rx="5" fill="url(#greenGradient)" opacity="0.8"/>
  <text x="495" y="325" text-anchor="middle" fill="white" font-size="18" font-weight="bold">Public AZ2</text>
  <text x="495" y="352" text-anchor="middle" fill="white" font-size="16">10.0.0.32/27</text>

  <!-- Management Private Subnets -->
  <rect x="90" y="460" width="250" height="85" rx="5" fill="url(#blueGradient)" opacity="0.8"/>
  <text x="215" y="500" text-anchor="middle" fill="white" font-size="18" font-weight="bold">Private AZ1</text>
  <text x="215" y="528" text-anchor="middle" fill="white" font-size="16">10.0.0.64/27</text>

  <rect x="370" y="460" width="250" height="85" rx="5" fill="url(#blueGradient)" opacity="0.8"/>
  <text x="495" y="500" text-anchor="middle" fill="white" font-size="18" font-weight="bold">Private AZ2</text>
  <text x="495" y="528" text-anchor="middle" fill="white" font-size="16">10.0.0.96/27</text>

  <!-- Management TGW Connection indicator -->
  <rect x="240" y="570" width="140" height="42" rx="3" fill="url(#purpleGradient)" opacity="0.8"/>
  <text x="310" y="598" text-anchor="middle" fill="white" font-size="16">TGW Attach</text>

  <!-- ==================== INSPECTION VPC ==================== -->
  <rect x="720" y="190" width="1420" height="600" rx="10" fill="none" stroke="#3B48CC" stroke-width="3"/>
  <text x="750" y="230" fill="white" font-size="24" font-weight="bold">Inspection VPC</text>
  <text x="750" y="260" fill="#888" font-size="17">vpc-1a2b3c4d5e6f | 10.1.0.0/22</text>

  <!-- FortiGate ASG Box - LEFT SIDE -->
  <rect x="760" y="290" width="250" height="330" rx="5" fill="none" stroke="#EE3124" stroke-width="2" stroke-dasharray="5,5"/>
  <text x="885" y="330" text-anchor="middle" fill="#EE3124" font-size="22" font-weight="bold">FortiGate ASG</text>
  <text x="885" y="362" text-anchor="middle" fill="#00FF00" font-size="17">(2 instance(s))</text>
  <text x="885" y="394" text-anchor="middle" fill="#888" font-size="16">Mode: Autoscale</text>
  <!-- Instance 1 -->
  <rect x="775" y="408" width="220" height="52" rx="3" fill="#232F3E" stroke="#00FF00" stroke-width="1"/>
  <text x="885" y="428" text-anchor="middle" fill="#00FF00" font-size="13">PRIMARY: i-0abc123def456789a</text>
  <text x="885" y="446" text-anchor="middle" fill="white" font-size="13">10.1.0.5</text>
  <text x="885" y="458" text-anchor="middle" fill="#00FF00" font-size="12">52.10.20.30</text>
  <!-- Instance 2 -->
  <rect x="775" y="468" width="220" height="52" rx="3" fill="#232F3E" stroke="#888" stroke-width="1"/>
  <text x="885" y="488" text-anchor="middle" fill="#888" font-size="13">SECONDARY: i-0def456abc789012b</text>
  <text x="885" y="506" text-anchor="middle" fill="white" font-size="13">10.1.0.70</text>
  <text x="885" y="518" text-anchor="middle" fill="#00FF00" font-size="12">52.10.20.31</text>
  <!-- Port labels -->
  <text x="885" y="546" text-anchor="middle" fill="#2E8B2E" font-size="14">port1: Public  |  port2: GWLBE  |  port3: Mgmt VPC</text>
  <!-- GWLB indicator -->
  <rect x="800" y="555" width="170" height="42" rx="3" fill="#ED7100" opacity="0.8"/>
  <text x="885" y="583" text-anchor="middle" fill="white" font-size="16">GWLB</text>

  <!-- Public Subnets - Middle Column Row 1 -->
  <rect x="1050" y="290" width="210" height="100" rx="5" fill="url(#greenGradient)" opacity="0.8"/>
  <text x="1155" y="325" text-anchor="middle" fill="white" font-size="17" font-weight="bold">Public AZ1</text>
  <text x="1155" y="352" text-anchor="middle" fill="white" font-size="15">10.1.0.0/26</text>
  <text x="1155" y="378" text-anchor="middle" fill="#FF9900" font-size="14">0.0.0.0/0 -> NAT GW</text>

  <rect x="1280" y="290" width="210" height="100" rx="5" fill="url(#greenGradient)" opacity="0.8"/>
  <text x="1385" y="325" text-anchor="middle" fill="white" font-size="17" font-weight="bold">Public AZ2</text>
  <text x="1385" y="352" text-anchor="middle" fill="white" font-size="15">10.1.0.64/26</text>
  <text x="1385" y="378" text-anchor="middle" fill="#FF9900" font-size="14">0.0.0.0/0 -> NAT GW</text>

  <!-- GWLBE Subnets - Middle Column Row 2 -->
  <rect x="1050" y="408" width="210" height="100" rx="5" fill="url(#orangeGradient)" opacity="0.8"/>
  <text x="1155" y="438" text-anchor="middle" fill="white" font-size="17" font-weight="bold">GWLBE AZ1</text>
  <text x="1155" y="465" text-anchor="middle" fill="white" font-size="15">10.1.0.128/26</text>
  <text x="1155" y="492" text-anchor="middle" fill="#FFE4B5" font-size="13">vpce-0a1b2c3d4e5f6789</text>

  <rect x="1280" y="408" width="210" height="100" rx="5" fill="url(#orangeGradient)" opacity="0.8"/>
  <text x="1385" y="438" text-anchor="middle" fill="white" font-size="17" font-weight="bold">GWLBE AZ2</text>
  <text x="1385" y="465" text-anchor="middle" fill="white" font-size="15">10.1.0.192/26</text>
  <text x="1385" y="492" text-anchor="middle" fill="#FFE4B5" font-size="13">vpce-0b2c3d4e5f6789ab</text>

  <!-- Private Subnets - Middle Column Row 3 -->
  <rect x="1050" y="526" width="210" height="100" rx="5" fill="url(#blueGradient)" opacity="0.8"/>
  <text x="1155" y="558" text-anchor="middle" fill="white" font-size="17" font-weight="bold">Private AZ1</text>
  <text x="1155" y="585" text-anchor="middle" fill="white" font-size="15">10.1.1.0/26</text>
  <text x="1155" y="612" text-anchor="middle" fill="#FF9900" font-size="14">0.0.0.0/0 -> GWLBE</text>

  <rect x="1280" y="526" width="210" height="100" rx="5" fill="url(#blueGradient)" opacity="0.8"/>
  <text x="1385" y="558" text-anchor="middle" fill="white" font-size="17" font-weight="bold">Private AZ2</text>
  <text x="1385" y="585" text-anchor="middle" fill="white" font-size="15">10.1.1.64/26</text>
  <text x="1385" y="612" text-anchor="middle" fill="#FF9900" font-size="14">0.0.0.0/0 -> GWLBE</text>

  <!-- NAT GW Subnets - RIGHT SIDE -->
  <rect x="1540" y="290" width="210" height="100" rx="5" fill="url(#blueGradient)" opacity="0.8"/>
  <text x="1645" y="325" text-anchor="middle" fill="white" font-size="17" font-weight="bold">NAT GW AZ1</text>
  <text x="1645" y="352" text-anchor="middle" fill="white" font-size="15">10.1.1.128/26</text>
  <text x="1645" y="378" text-anchor="middle" fill="#FF9900" font-size="14">0.0.0.0/0 -> IGW</text>

  <rect x="1770" y="290" width="210" height="100" rx="5" fill="url(#blueGradient)" opacity="0.8"/>
  <text x="1875" y="325" text-anchor="middle" fill="white" font-size="17" font-weight="bold">NAT GW AZ2</text>
  <text x="1875" y="352" text-anchor="middle" fill="white" font-size="15">10.1.1.192/26</text>
  <text x="1875" y="378" text-anchor="middle" fill="#FF9900" font-size="14">0.0.0.0/0 -> IGW</text>

  <!-- TGW Subnets - Bottom of Inspection VPC -->
  <rect x="1050" y="644" width="210" height="80" rx="5" fill="url(#purpleGradient)" opacity="0.8"/>
  <text x="1155" y="679" text-anchor="middle" fill="white" font-size="17" font-weight="bold">TGW AZ1</text>
  <text x="1155" y="706" text-anchor="middle" fill="white" font-size="15">10.1.2.0/26</text>

  <rect x="1280" y="644" width="210" height="80" rx="5" fill="url(#purpleGradient)" opacity="0.8"/>
  <text x="1385" y="679" text-anchor="middle" fill="white" font-size="17" font-weight="bold">TGW AZ2</text>
  <text x="1385" y="706" text-anchor="middle" fill="white" font-size="15">10.1.2.64/26</text>

  <!-- Inspection VPC TGW Attach indicator -->
  <rect x="1200" y="650" width="140" height="42" rx="3" fill="url(#purpleGradient)" opacity="0.8"/>
  <text x="1270" y="678" text-anchor="middle" fill="white" font-size="16">TGW Attach</text>

  <!-- ENI Connection Lines from FortiGate ASG (dotted) -->
  <line x1="1010" y1="438" x2="1050" y2="340" stroke="#2E8B2E" stroke-width="2" stroke-dasharray="4,3"/>
  <line x1="1010" y1="465" x2="1050" y2="458" stroke="#ED7100" stroke-width="2" stroke-dasharray="4,3"/>
  <path d="M 760 492 L 700 492 L 700 400 L 660 400" stroke="#147EBA" stroke-width="2" stroke-dasharray="4,3" fill="none"/>

  <!-- ==================== TRANSIT GATEWAY ==================== -->
  <rect x="60" y="840" width="2080" height="100" rx="10" fill="url(#purpleGradient)" opacity="0.9"/>
  <text x="1100" y="885" text-anchor="middle" fill="white" font-size="26" font-weight="bold">Transit Gateway: acme-test-tgw</text>
  <text x="1100" y="918" text-anchor="middle" fill="white" font-size="18">tgw-0a1b2c3d4e5f67890</text>

  <!-- TGW Connection Lines -->
  <line x1="310" y1="612" x2="310" y2="840" stroke="#8C4FFF" stroke-width="2"/>
  <line x1="1270" y1="730" x2="1270" y2="840" stroke="#8C4FFF" stroke-width="2"/>

  <!-- ==================== EAST SPOKE VPC ==================== -->
  <rect x="620" y="990" width="500" height="370" rx="10" fill="none" stroke="#3B48CC" stroke-width="3"/>
  <text x="645" y="1030" fill="white" font-size="22" font-weight="bold">East Spoke VPC</text>
  <text x="645" y="1060" fill="#888" font-size="16">vpc-2a3b4c5d6e7f | 10.2.0.0/24</text>

  <!-- East Public Subnets -->
  <rect x="650" y="1085" width="220" height="120" rx="5" fill="url(#greenGradient)" opacity="0.8"/>
  <text x="760" y="1118" text-anchor="middle" fill="white" font-size="17" font-weight="bold">Public AZ1</text>
  <text x="760" y="1145" text-anchor="middle" fill="white" font-size="15">10.2.0.0/27</text>
  <rect x="675" y="1160" width="170" height="38" rx="3" fill="#232F3E" stroke="#FF9900" stroke-width="1"/>
  <text x="760" y="1185" text-anchor="middle" fill="white" font-size="15">10.2.0.10</text>

  <rect x="890" y="1085" width="220" height="120" rx="5" fill="url(#greenGradient)" opacity="0.8"/>
  <text x="1000" y="1118" text-anchor="middle" fill="white" font-size="17" font-weight="bold">Public AZ2</text>
  <text x="1000" y="1145" text-anchor="middle" fill="white" font-size="15">10.2.0.32/27</text>
  <rect x="915" y="1160" width="170" height="38" rx="3" fill="#232F3E" stroke="#FF9900" stroke-width="1"/>
  <text x="1000" y="1185" text-anchor="middle" fill="white" font-size="15">10.2.0.42</text>

  <!-- East TGW Subnets -->
  <rect x="650" y="1220" width="220" height="80" rx="5" fill="url(#purpleGradient)" opacity="0.8"/>
  <text x="760" y="1255" text-anchor="middle" fill="white" font-size="17" font-weight="bold">TGW AZ1</text>
  <text x="760" y="1282" text-anchor="middle" fill="white" font-size="15">10.2.0.64/27</text>

  <rect x="890" y="1220" width="220" height="80" rx="5" fill="url(#purpleGradient)" opacity="0.8"/>
  <text x="1000" y="1255" text-anchor="middle" fill="white" font-size="17" font-weight="bold">TGW AZ2</text>
  <text x="1000" y="1282" text-anchor="middle" fill="white" font-size="15">10.2.0.96/27</text>

  <!-- East TGW Connection -->
  <line x1="870" y1="940" x2="870" y2="990" stroke="#8C4FFF" stroke-width="2"/>

  <!-- East Route Status -->
  <rect x="650" y="1310" width="460" height="40" rx="3" fill="#00FF00" opacity="0.3"/>
  <text x="880" y="1337" text-anchor="middle" fill="#00FF00" font-size="15">Route: 0.0.0.0/0 -> TGW | TGW RT: tgw-attach-0a1b2c3d (Inspection) | Active</text>

  <!-- ==================== WEST SPOKE VPC ==================== -->
  <rect x="1160" y="990" width="500" height="370" rx="10" fill="none" stroke="#3B48CC" stroke-width="3"/>
  <text x="1185" y="1030" fill="white" font-size="22" font-weight="bold">West Spoke VPC</text>
  <text x="1185" y="1060" fill="#888" font-size="16">vpc-3a4b5c6d7e8f | 10.3.0.0/24</text>

  <!-- West Public Subnets -->
  <rect x="1190" y="1085" width="220" height="120" rx="5" fill="url(#greenGradient)" opacity="0.8"/>
  <text x="1300" y="1118" text-anchor="middle" fill="white" font-size="17" font-weight="bold">Public AZ1</text>
  <text x="1300" y="1145" text-anchor="middle" fill="white" font-size="15">10.3.0.0/27</text>
  <rect x="1215" y="1160" width="170" height="38" rx="3" fill="#232F3E" stroke="#FF9900" stroke-width="1"/>
  <text x="1300" y="1185" text-anchor="middle" fill="white" font-size="15">10.3.0.10</text>

  <rect x="1430" y="1085" width="220" height="120" rx="5" fill="url(#greenGradient)" opacity="0.8"/>
  <text x="1540" y="1118" text-anchor="middle" fill="white" font-size="17" font-weight="bold">Public AZ2</text>
  <text x="1540" y="1145" text-anchor="middle" fill="white" font-size="15">10.3.0.32/27</text>
  <rect x="1455" y="1160" width="170" height="38" rx="3" fill="#232F3E" stroke="#FF9900" stroke-width="1"/>
  <text x="1540" y="1185" text-anchor="middle" fill="white" font-size="15">10.3.0.42</text>

  <!-- West TGW Subnets -->
  <rect x="1190" y="1220" width="220" height="80" rx="5" fill="url(#purpleGradient)" opacity="0.8"/>
  <text x="1300" y="1255" text-anchor="middle" fill="white" font-size="17" font-weight="bold">TGW AZ1</text>
  <text x="1300" y="1282" text-anchor="middle" fill="white" font-size="15">10.3.0.64/27</text>

  <rect x="1430" y="1220" width="220" height="80" rx="5" fill="url(#purpleGradient)" opacity="0.8"/>
  <text x="1540" y="1255" text-anchor="middle" fill="white" font-size="17" font-weight="bold">TGW AZ2</text>
  <text x="1540" y="1282" text-anchor="middle" fill="white" font-size="15">10.3.0.96/27</text>

  <!-- West TGW Connection -->
  <line x1="1410" y1="940" x2="1410" y2="990" stroke="#8C4FFF" stroke-width="2"/>

  <!-- West Route Status -->
  <rect x="1190" y="1310" width="460" height="40" rx="3" fill="#00FF00" opacity="0.3"/>
  <text x="1420" y="1337" text-anchor="middle" fill="#00FF00" font-size="15">Route: 0.0.0.0/0 -> TGW | TGW RT: tgw-attach-0b2c3d4e (Inspection) | Active</text>

  <!-- ==================== LEGEND ==================== -->
  <rect x="60" y="990" width="530" height="370" rx="5" fill="#232F3E" opacity="0.9"/>
  <text x="85" y="1030" fill="white" font-size="22" font-weight="bold">Legend</text>

  <!-- Subnet Types -->
  <rect x="85" y="1065" width="32" height="24" fill="url(#greenGradient)"/>
  <text x="130" y="1085" fill="white" font-size="17">Public Subnet</text>

  <rect x="85" y="1105" width="32" height="24" fill="url(#blueGradient)"/>
  <text x="130" y="1125" fill="white" font-size="17">Private / NAT GW Subnet</text>

  <rect x="85" y="1145" width="32" height="24" fill="url(#purpleGradient)"/>
  <text x="130" y="1165" fill="white" font-size="17">TGW Subnet</text>

  <rect x="85" y="1185" width="32" height="24" fill="url(#orangeGradient)"/>
  <text x="130" y="1205" fill="white" font-size="17">GWLB / GWLBE Subnet</text>

  <rect x="85" y="1225" width="32" height="24" fill="none" stroke="#EE3124" stroke-width="1" stroke-dasharray="3,2"/>
  <text x="130" y="1245" fill="white" font-size="17">FortiGate ASG (deployed)</text>

  <!-- ENI Connection Legend -->
  <text x="340" y="1085" fill="white" font-size="17" font-weight="bold">ENI Connections:</text>
  <line x1="340" y1="1112" x2="395" y2="1112" stroke="#2E8B2E" stroke-width="2" stroke-dasharray="4,3"/>
  <text x="408" y="1118" fill="#2E8B2E" font-size="16">port1 (Public)</text>
  <line x1="340" y1="1145" x2="395" y2="1145" stroke="#ED7100" stroke-width="2" stroke-dasharray="4,3"/>
  <text x="408" y="1151" fill="#ED7100" font-size="16">port2 (GWLBE)</text>
  <line x1="340" y1="1178" x2="395" y2="1178" stroke="#147EBA" stroke-width="2" stroke-dasharray="4,3"/>
  <text x="408" y="1184" fill="#147EBA" font-size="16">port3 (Mgmt VPC)</text>

  <!-- IP Legend -->
  <text x="85" y="1300" fill="white" font-size="17" font-weight="bold">IP Addresses:</text>
  <text x="85" y="1327" fill="white" font-size="17">Private IP (white)</text>
  <text x="85" y="1354" fill="#00FF00" font-size="17">Public IP (green)</text>

  <!-- Status -->
  <text x="340" y="1220" fill="white" font-size="17" font-weight="bold">Deployment:</text>
  <text x="340" y="1247" fill="#00FF00" font-size="16">East/West TGW: Attached</text>
  <text x="340" y="1274" fill="#00FF00" font-size="16">ASG deployed: 2 instance(s)</text>

  <!-- Instance Summary -->
  <text x="340" y="1312" fill="white" font-size="17" font-weight="bold">Public IPs:</text>
  <text x="340" y="1339" fill="#00FF00" font-size="16">Jump Box: 54.123.45.67</text>
  <text x="340" y="1362" fill="#00FF00" font-size="16">FGT Primary: 52.10.20.30</text>

</svg>
